/vscmnt/brussel_pixiu_data/_data_brussel/112/vsc11236/PredSimResults/SUBJ06opt3D/expIG/worker_01.mot
version=1
nRows=8
nColumns=50
inDegrees=yes
endheader
                time	         pelvis_tilt	         pelvis_list	     pelvis_rotation	           pelvis_tx	           pelvis_ty	           pelvis_tz	       hip_flexion_r	     hip_adduction_r	      hip_rotation_r	        knee_angle_r	       ankle_angle_r	         mtp_angle_r	       hip_flexion_l	     hip_adduction_l	      hip_rotation_l	        knee_angle_l	       ankle_angle_l	         mtp_angle_l	    lumbar_extension	      lumbar_bending	     lumbar_rotation	 ercspn_r/activation	 intobl_r/activation	 extobl_r/activation	    abd_r/activation	    add_r/activation	hamstrings_r/activation	bifemsh_r/activation	glut_max_r/activation	iliopsoas_r/activation	rect_fem_r/activation	  vasti_r/activation	gastroc_r/activation	 soleus_r/activation	tib_ant_r/activation	 ercspn_l/activation	 intobl_l/activation	 extobl_l/activation	    abd_l/activation	    add_l/activation	hamstrings_l/activation	bifemsh_l/activation	glut_max_l/activation	iliopsoas_l/activation	rect_fem_l/activation	  vasti_l/activation	gastroc_l/activation	 soleus_l/activation	tib_ant_l/activation	
          2.61810167	          1.75959446	          6.97818815	         -4.68386689	          1.57086100	          0.98275809	          0.00532446	        -14.88785153	        -10.14875869	        -23.80124743	        -11.77529169	        -10.51132679	         47.33764670	         16.45163656	          4.79929860	        -28.35883714	        -11.21874365	         -9.55954774	          0.43366131	         -7.53862167	         -2.82000165	          3.90682173	          0.00999999	          0.00999999	          0.00999999	          0.08293409	          0.00999999	          0.01000000	          0.00999999	          0.01746579	          0.00999999	          0.19681856	          0.03740473	          0.23855022	          0.25389795	          0.00999999	          0.17445505	          0.15427437	          0.02911424	          0.00999999	          0.13196108	          0.02006181	          0.15225032	          0.00999999	          0.07867293	          0.00999999	          0.00999999	          0.00999999	          0.00999999	          0.16305559	
          2.63555568	          1.70461057	          6.47407639	         -5.00445029	          1.58561416	          0.97968366	          0.00348442	        -15.83975760	         -9.84545959	        -23.81691474	        -11.44121581	        -11.04797080	         47.87310384	         16.37387959	          4.04689342	        -28.86916747	        -13.08328341	         -8.22476066	          1.52447402	         -7.13581153	         -2.76753890	          3.85593669	          0.02457595	          0.00999999	          0.00999999	          0.06424516	          0.00999999	          0.00999999	          0.00999999	          0.01352993	          0.00999999	          0.15246613	          0.04916037	          0.23207648	          0.24560787	          0.00999999	          0.13993250	          0.16067217	          0.02255344	          0.00999999	          0.10222408	          0.01554095	          0.18207160	          0.00999999	          0.06094424	          0.00999999	          0.00999999	          0.02906661	          0.04548013	          0.12631154	
          2.65300969	          1.63933714	          5.99843814	         -5.30707731	          1.60085553	          0.97665806	          0.00159651	        -16.75738033	         -9.60768599	        -23.77041007	        -11.19929486	        -11.68038910	         48.36253372	         16.14869683	          3.35950007	        -29.07240043	        -14.83286886	         -6.56651806	          3.52634029	         -6.68186907	         -2.78147828	          3.82513836	          0.04066142	          0.00999999	          0.00999999	          0.04976772	          0.00999999	          0.00999999	          0.00999999	          0.01048100	          0.01329120	          0.11810838	          0.05127908	          0.22170025	          0.23409611	          0.00999999	          0.11159405	          0.14061552	          0.01747109	          0.01532734	          0.07918821	          0.02515411	          0.18662286	          0.00999999	          0.04721065	          0.00999999	          0.00999999	          0.02251655	          0.08206392	          0.09784764	
          2.67046370	          1.55998665	          5.56168723	         -5.59054248	          1.61632988	          0.97396471	         -0.00040633	        -17.54524328	         -9.47804271	        -23.64741433	        -11.17329088	        -12.45288336	         48.78754779	         15.79187412	          2.80085466	        -28.97529969	        -16.39407872	         -4.69818415	          5.92253376	         -6.20103934	         -2.85205348	          3.81744934	          0.06262326	          0.00999999	          0.00999999	          0.03855273	          0.00999999	          0.00999999	          0.00999999	          0.00999999	          0.01290899	          0.09149304	          0.05597384	          0.20658857	          0.22122699	          0.00999999	          0.10585746	          0.10892826	          0.01353404	          0.04367119	          0.06134340	          0.03688174	          0.21070412	          0.00999999	          0.03657189	          0.00999999	          0.00999999	          0.01744251	          0.12216723	          0.07579799	
          2.68791771	          1.46572040	          5.15025936	         -5.85246496	          1.63184893	          0.97186454	         -0.00252830	        -18.14171244	         -9.45627697	        -23.44464804	        -11.43295250	        -13.41397524	         49.10986940	         15.33433051	          2.34747327	        -28.75392435	        -17.68513475	         -2.97262701	          8.33767899	         -5.70583393	         -2.94862906	          3.82140747	          0.08419792	          0.00999999	          0.00999999	          0.02986500	          0.01507781	          0.02546740	          0.00999999	          0.01290899	          0.00999999	          0.07087538	          0.05548691	          0.18555284	          0.20451615	          0.00999999	          0.08882967	          0.08438163	          0.01048419	          0.06559077	          0.04751987	          0.04199245	          0.20740073	          0.00999999	          0.02833053	          0.00999999	          0.00999999	          0.01351190	          0.16388820	          0.06264022	
          2.70537172	          1.35731883	          4.75167925	         -6.08866951	          1.64717698	          0.97055769	         -0.00475576	        -18.47198286	         -9.54216108	        -23.18116249	        -12.08676920	        -14.53580151	         49.22159506	         14.86709087	          1.93593709	        -28.62640704	        -18.82048791	         -1.51118616	         10.58400539	         -5.21729610	         -3.04750856	          3.82413408	          0.10187078	          0.00999999	          0.00999999	          0.02313501	          0.06096772	          0.03553166	          0.00999999	          0.00999999	          0.00999999	          0.05490384	          0.04298312	          0.15995273	          0.18571361	          0.00999999	          0.08881234	          0.06536650	          0.00999999	          0.07607644	          0.03681142	          0.05058046	          0.16066364	          0.06036791	          0.02194634	          0.00999999	          0.00999999	          0.01046704	          0.20237786	          0.06937053	
          2.72282573	          1.23702725	          4.33733856	         -6.29939741	          1.66211786	          0.97014388	         -0.00704199	        -18.43865135	         -9.72490841	        -22.90792215	        -13.29839416	        -15.74859321	         48.98603301	         14.43626954	          1.50232215	        -28.62341168	        -19.87382968	         -0.42987737	         12.67315952	         -4.75417755	         -3.11597249	          3.81713980	          0.11572664	          0.00999999	          0.00999999	          0.01792161	          0.10319629	          0.05146775	          0.00999999	          0.00999999	          0.00999999	          0.04253144	          0.03329701	          0.12998491	          0.16836648	          0.00999999	          0.09207074	          0.05063637	          0.00999999	          0.07694964	          0.02851608	          0.05897768	          0.12445861	          0.11135963	          0.01700080	          0.00999999	          0.00999999	          0.00999999	          0.23343466	          0.07838852	
          2.74027975	          1.10852138	          3.87967234	         -6.49095442	          1.67655668	          0.97057428	         -0.00932101	        -17.98062827	         -9.98629106	        -22.69316997	        -15.17522320	        -16.96361507	         48.23504153	         14.05250897	          1.00529145	        -28.68842628	        -20.87544966	          0.24388181	         14.65009762	         -4.32807708	         -3.12807482	          3.79719079	          0.12128685	          0.00999999	          0.00999999	          0.01388304	          0.14074263	          0.06178688	          0.00999999	          0.00999999	          0.00999999	          0.03294712	          0.02579364	          0.10069323	          0.15190969	          0.00999999	          0.09488252	          0.03922563	          0.00999999	          0.07250817	          0.02209008	          0.06570564	          0.09641226	          0.15082118	          0.01316972	          0.00999999	          0.00999999	          0.00999999	          0.25545726	          0.07851242	
